<svg xmlns="http://www.w3.org/2000/svg" width="24" height="24" fill="none" viewBox="0 0 24 24"><path fill="#575757" d="M11.401 0.240242L0.247849 11.397C0.10327 11.5416 0 11.7689 0 11.9962C0 12.2234 0.10327 12.4507 0.247849 12.5953L11.401 23.7521C11.7315 24.0826 12.2685 24.0826 12.599 23.7521C12.7642 23.5868 12.8468 23.3802 12.8468 23.1529C12.8468 22.9256 12.7642 22.719 12.599 22.5538L2.89157 12.8432L23.1532 12.8432C23.6282 12.8432 24 12.4714 24 11.9962C24 11.521 23.6282 11.1491 23.1532 11.1491L2.89157 11.1491L12.599 1.43856C12.9294 1.10799 12.9294 0.570812 12.599 0.240242C12.2685 -0.0903282 11.7315 -0.0696678 11.401 0.240242Z"/></svg>