<svg xmlns="http://www.w3.org/2000/svg" width="14.857" height="14.857" viewBox="0 0 14.857 14.857">
    <defs>
        <style>
            .cls-1{fill:none;stroke:#000;stroke-linecap:round;stroke-miterlimit:10;stroke-width:2px;fill-rule:evenodd}.cls-2{stroke:#333;stroke-width:.5px}
        </style>
    </defs>
    <g id="Group_831" data-name="Group 831" transform="translate(-462.75 -332.75)">
        <g id="Group_822" data-name="Group 822" transform="translate(-146 -134)">
            <g id="Group_732" data-name="Group 732" transform="translate(609 467)">
                <path id="Path_207" d="M13.111 8.342a1.036 1.036 0 0 1 1.043 1.043v3.726a1.036 1.036 0 0 1-1.043 1.043H9.384a1.036 1.036 0 0 1-1.043-1.043V9.384a1.036 1.036 0 0 1 1.043-1.042h3.726m0-.342H9.384A1.379 1.379 0 0 0 8 9.384v3.726a1.379 1.379 0 0 0 1.384 1.39h3.726a1.379 1.379 0 0 0 1.39-1.389V9.384A1.379 1.379 0 0 0 13.111 8z" class="cls-2" data-name="Path 207" transform="translate(-8 -8)"/>
            </g>
            <g id="Group_733" data-name="Group 733" transform="translate(609 474.862)">
                <path id="Path_208" d="M13.111 54.342a1.036 1.036 0 0 1 1.043 1.043v3.726a1.036 1.036 0 0 1-1.043 1.043H9.384a1.036 1.036 0 0 1-1.043-1.043v-3.727a1.036 1.036 0 0 1 1.043-1.043h3.726m0-.342H9.384A1.379 1.379 0 0 0 8 55.384v3.726a1.379 1.379 0 0 0 1.384 1.39h3.726a1.379 1.379 0 0 0 1.39-1.389v-3.727A1.379 1.379 0 0 0 13.111 54z" class="cls-2" data-name="Path 208" transform="translate(-8 -54)"/>
            </g>
            <g id="Group_734" data-name="Group 734" transform="translate(616.862 467)">
                <path id="Path_209" d="M59.111 8.342a1.036 1.036 0 0 1 1.043 1.043v3.726a1.036 1.036 0 0 1-1.043 1.043h-3.727a1.036 1.036 0 0 1-1.043-1.043V9.384a1.036 1.036 0 0 1 1.043-1.043h3.726m0-.342h-3.726A1.379 1.379 0 0 0 54 9.384v3.726a1.379 1.379 0 0 0 1.384 1.39h3.726a1.379 1.379 0 0 0 1.39-1.389V9.384A1.379 1.379 0 0 0 59.111 8z" class="cls-2" data-name="Path 209" transform="translate(-54 -8)"/>
            </g>
            <g id="Group_735" data-name="Group 735" transform="translate(616.862 474.862)">
                <path id="Path_210" d="M57.248 54.342a2.906 2.906 0 1 1-2.906 2.906 2.9 2.9 0 0 1 2.906-2.906m0-.342a3.248 3.248 0 1 0 3.252 3.248A3.246 3.246 0 0 0 57.248 54z" class="cls-2" data-name="Path 210" transform="translate(-54 -54)"/>
            </g>
        </g>
    </g>
</svg>
