<svg xmlns="http://www.w3.org/2000/svg" width="18.054" height="18.848" viewBox="0 0 18.054 18.848">
    <defs>
        <style>
            .cls-1{fill:#595959}
        </style>
    </defs>
    <g id="Group_275" data-name="Group 275">
        <path id="Path_69" d="M5 7.587a2 2 0 0 0-2 2v8.241a2 2 0 0 0 2 2h14.053a2 2 0 0 0 2-2V9.583a2 2 0 0 0-2-2H17.6l-3.966-3.97a1.808 1.808 0 1 0-3.206 0L6.444 7.587zm14.053.961a1.036 1.036 0 0 1 1.039 1.034v8.241a1.036 1.036 0 0 1-1.041 1.034H5a1.036 1.036 0 0 1-1.04-1.033V9.583a1.036 1.036 0 0 1 1.034-1.034zm-7.028-6.61a.846.846 0 1 1-.847.846.846.846 0 0 1 .849-.846zm-.951 2.382a1.788 1.788 0 0 0 1.9 0l3.265 3.269H7.8z" class="cls-1" data-name="Path 69" transform="translate(-3 -.971)"/>
        <ellipse id="Ellipse_36" cx=".551" cy=".552" class="cls-1" data-name="Ellipse 36" rx=".551" ry=".552" transform="translate(2.211 8.808)"/>
        <ellipse id="Ellipse_37" cx=".551" cy=".552" class="cls-1" data-name="Ellipse 37" rx=".551" ry=".552" transform="translate(2.211 15.587)"/>
        <ellipse id="Ellipse_38" cx=".551" cy=".552" class="cls-1" data-name="Ellipse 38" rx=".551" ry=".552" transform="translate(14.741 8.808)"/>
        <ellipse id="Ellipse_39" cx=".551" cy=".552" class="cls-1" data-name="Ellipse 39" rx=".551" ry=".552" transform="translate(14.741 15.587)"/>
        <path id="Path_70" d="M35.815 56.371a3.376 3.376 0 1 0-2.384-.988 3.374 3.374 0 0 0 2.384.988zM38.228 53a2.412 2.412 0 0 1-3.743 2.013l3.342-3.347A2.4 2.4 0 0 1 38.228 53zm-4.118-1.711a2.414 2.414 0 0 1 3.037-.306L33.8 54.329a2.417 2.417 0 0 1 .305-3.042z" class="cls-1" data-name="Path 70" transform="translate(-26.788 -40.265)"/>
    </g>
</svg>
