<svg xmlns="http://www.w3.org/2000/svg" width="18" height="17.267" viewBox="0 0 18 17.267">
    <defs>
        <style>
            .cls-1{fill:#595959}
        </style>
    </defs>
    <g id="Group_665" data-name="Group 665" transform="translate(-6633 797)">
        <path id="Path_67" d="M15.079 38.4H3.948a1.123 1.123 0 0 0-1.131 1.112v1.606a2.732 2.732 0 0 0 0 5.167v1.605A1.123 1.123 0 0 0 3.948 49h11.131a1.123 1.123 0 0 0 1.131-1.112v-1.6a2.732 2.732 0 0 0 0-5.163v-1.613a1.123 1.123 0 0 0-1.131-1.112zm2.05 5.3a1.859 1.859 0 0 1-1.471 1.808.454.454 0 0 0-.368.441v1.939a.21.21 0 0 1-.211.206H3.948a.21.21 0 0 1-.211-.206v-1.945a.454.454 0 0 0-.368-.441 1.837 1.837 0 0 1 0-3.6.454.454 0 0 0 .368-.441v-1.949a.21.21 0 0 1 .211-.208h11.131a.21.21 0 0 1 .211.208v1.944a.454.454 0 0 0 .368.441 1.859 1.859 0 0 1 1.471 1.803z" class="cls-1" data-name="Path 67" transform="translate(6632.025 -828.73)"/>
        <path id="Path_66" d="M34.567 7.935L24.74 3.107a1.112 1.112 0 0 0-1.486.508l-2.1 4.273a.452.452 0 1 0 .812.4l2.1-4.275a.208.208 0 0 1 .275-.094l9.826 4.828a.208.208 0 0 1 .094.278l-.854 1.745a.452.452 0 1 0 .812.4l.857-1.745a1.112 1.112 0 0 0-.508-1.488z" class="cls-1" data-name="Path 66" transform="translate(6615.811 -799.993)"/>
        <path id="Path_68" d="M13.876 19.358a.385.385 0 0 0-.544 0l-2.859 2.859a.064.064 0 0 1-.091 0l-1.039-1.04a.385.385 0 1 0-.545.544l1.357 1.359a.385.385 0 0 0 .544 0l3.177-3.18a.385.385 0 0 0 0-.546z" class="cls-1" data-name="Path 68" transform="translate(6630.231 -806.264)"/>
    </g>
</svg>
