<svg xmlns="http://www.w3.org/2000/svg" width="21.4" height="12.392" viewBox="0 0 21.4 12.392">
    <defs>
        <style>
            .cls-1{fill:#006d75}
        </style>
    </defs>
    <g id="Group" transform="translate(-3.6 -23.063)">
        <path id="Compound_Path" d="M25 32.318a4.4 4.4 0 0 0-2.7-4.059 2.883 2.883 0 1 0-3.436 0 4.381 4.381 0 0 0-2.329 2.375l-.53-.277a2.883 2.883 0 1 0-3.436 0l-.53.277a4.381 4.381 0 0 0-2.329-2.352 2.883 2.883 0 1 0-3.436 0A4.4 4.4 0 0 0 3.6 32.318v1.038h.922v-1.038a3.482 3.482 0 0 1 6.78-1.107 4.381 4.381 0 0 0-1.384 3.205v1.038h.922v-1.037a3.482 3.482 0 1 1 6.941 0v1.038h.919v-1.038a4.381 4.381 0 0 0-1.384-3.205 3.482 3.482 0 0 1 6.757 1.107v1.038H25zM6.044 25.977A1.96 1.96 0 1 1 8 27.937a1.96 1.96 0 0 1-1.956-1.96zm6.3 2.1a1.96 1.96 0 1 1 1.96 1.937 1.96 1.96 0 0 1-1.96-1.937zm6.3-2.1a1.96 1.96 0 1 1 1.96 1.96 1.96 1.96 0 0 1-1.969-1.96z" class="cls-1" data-name="Compound Path"/>
    </g>
</svg>
