<svg id="Layer_1" data-name="Layer 1" xmlns="http://www.w3.org/2000/svg" viewBox="0 0 2400 1000"><defs><style>.cls-1{fill:#3ea0b3;}.cls-2{fill:#76888b;}</style></defs><title>Artboard 1</title><g id="Layer_1-2" data-name="Layer 1-2"><path class="cls-1" d="M538.19,622.17A140.5,140.5,0,1,1,678.76,481.6v29.82H462.93A80.93,80.93,0,0,0,589.61,544l5.47-4.53L640.93,578l-7,6.58A140.12,140.12,0,0,1,538.19,622.17Zm75.25-170.39a80.93,80.93,0,0,0-150.51,0Z"/><path class="cls-1" d="M838.75,622.17A140.57,140.57,0,1,1,977.48,458.94a138.71,138.71,0,0,1,1.83,22.66v29.82H763.5A80.93,80.93,0,0,0,890.18,544l5.48-4.53L941.51,578l-7.07,6.58A140,140,0,0,1,838.75,622.17ZM914,451.78a80.94,80.94,0,0,0-150.49,0Z"/><polygon class="cls-2" points="18.25 622.17 18.25 179.17 77.88 179.17 77.88 562.53 292.99 562.53 292.99 622.17 18.25 622.17"/><path class="cls-2" d="M1305.45,622.17V481.6a80.94,80.94,0,0,0-161.87,0V622.17H1084V341h59.63v25.56a140.57,140.57,0,0,1,221.5,115V622.17Z"/><path class="cls-2" d="M1606,622.17V596.61a140.57,140.57,0,1,1,0-230V341h59.63V622.17Zm-80.93-221.5A80.93,80.93,0,1,0,1606,481.6,80.93,80.93,0,0,0,1525.07,400.67Z"/><path class="cls-1" d="M346.51,800.22a34.07,34.07,0,0,1-34.07-34.08V481.6C312.58,357,413.57,256,538.19,255.84H838.75c124.68,0,225.75,101.08,225.75,225.76S963.43,707.36,838.75,707.36H544.31a17,17,0,0,0-7.63,1.79L361.83,796.47A33.76,33.76,0,0,1,346.51,800.22ZM538.19,315.48A166.31,166.31,0,0,0,372.07,481.6V724.76l137.86-68.94a77,77,0,0,1,34.38-8.1H838.75a166.12,166.12,0,0,0,0-332.24Z"/></g><path class="cls-2" d="M2125.14,623l-43.95-118.24H1912.92L1869.87,623H1794l164.66-427.55h78.27L2201.61,623Zm-62.91-178.24L2021,328.82q-4.52-11.64-12.49-36.69t-11-36.7q-8.13,35.82-23.78,78.34l-39.74,111Z"/><path class="cls-2" d="M2259.7,623V197.18h72V623Z"/><path class="cls-1" d="M1129.93,687.72h16.25l32.66,74.22,32-74.22h16.33V801.63h-17.27v-71h-.39l-23.83,54.69h-14.37l-23.83-54.69h-.31v71h-17.27Z"/><path class="cls-1" d="M1292.27,794.44H1292a13.55,13.55,0,0,1-7,6.1q-4.7,2-13,2-13.59-.17-20.94-7.19a22.47,22.47,0,0,1-7.73-17.58,23,23,0,0,1,6.72-16.95q6.72-6.87,19.69-7h22.57V745.3q.17-10.69-16.64-10.39a29.74,29.74,0,0,0-9.61,1.25,11.8,11.8,0,0,0-5.78,5l-12.81-9.76q9.3-12.2,27.42-11.88,15.32-.15,24.45,5.78,9.15,6.09,9.3,20.94v55.39h-16.33Zm0-27.19h-19.53q-14.22.32-14.06,9.77a8.66,8.66,0,0,0,3.67,7q3.53,3.21,11.64,3.2,10.23.16,14.46-2.42,3.83-2.58,3.82-11.72Z"/><path class="cls-1" d="M1329.7,687.72H1346v70.86h.32l31.17-38H1397l-28,31.64,31.8,49.45H1380.4l-21.56-37.89L1346,778.27v23.36H1329.7Z"/><path class="cls-1" d="M1413.21,687.72h16.33v16.33h-16.33Zm0,32.82h16.33v81.09h-16.33Z"/><path class="cls-1" d="M1451.1,720.54h16.33v8.59h.31q8.05-9.61,21.1-9.61a27.81,27.81,0,0,1,18.43,7.11q8.28,7.18,8.68,21.09v53.91h-16.33V753.35q0-8.52-4.53-13a15.41,15.41,0,0,0-11.49-4.53,15.65,15.65,0,0,0-11.56,4.53q-4.62,4.46-4.61,13v48.28H1451.1Z"/><path class="cls-1" d="M1582.66,793.11q-8,9.15-20.93,9.46-7.9-.17-13.13-3.36a29,29,0,0,1-8.36-6.56,24.75,24.75,0,0,1-4.61-9.77q-1.49-5.7-1.48-21.72,0-16.32,1.48-22.11a24.11,24.11,0,0,1,4.61-9.61,26.4,26.4,0,0,1,8.36-6.87q5.24-2.9,13.13-3.05,12.11,0,20.93,9.61v-8.59H1599v79.14q-.32,18.27-10.54,26.87a36.71,36.71,0,0,1-24.69,8.83q-16.48-.32-28.13-13.59l12.66-10.08a30.77,30.77,0,0,0,7.19,4.92,19,19,0,0,0,8.59,2.42q8.36,0,13.44-4.61t5.15-13Zm-32.18-32a86,86,0,0,0,.62,12.81,12,12,0,0,0,2.58,6.1,14.87,14.87,0,0,0,5,4,15.6,15.6,0,0,0,15.94,0,15.27,15.27,0,0,0,4.84-4,13.23,13.23,0,0,0,2.74-6.1,116.07,116.07,0,0,0,.46-12.81,123.07,123.07,0,0,0-.46-13.12,12.15,12.15,0,0,0-2.74-5.94,19.18,19.18,0,0,0-4.84-4.3,17.26,17.26,0,0,0-15.94,0,18.39,18.39,0,0,0-5,4.3,11,11,0,0,0-2.58,5.94A91.2,91.2,0,0,0,1550.48,761.16Z"/><path class="cls-1" d="M1705.79,744.83h-.31l-17,56.8h-14.37l-25.94-81.09h17.27L1681,777.33h.32l18.43-56.79h11.8L1730,777.33h.31l15.47-56.79h17.26l-25.85,81.09h-14.46Z"/><path class="cls-1" d="M1770,761q0-12.81,2.11-19.68a28.21,28.21,0,0,1,6.72-11.33,30.57,30.57,0,0,1,9.37-7.27q5.94-3,15.24-3.2,9.6.16,15.54,3.2a29,29,0,0,1,9.06,7.27,25.57,25.57,0,0,1,6.88,11.33q2,6.87,2,19.68t-2,19.54a27.86,27.86,0,0,1-6.88,11.64,24.79,24.79,0,0,1-3.82,3.51,17.72,17.72,0,0,1-5.24,3.36q-5.94,3.36-15.54,3.52-9.3-.17-15.24-3.52a30.44,30.44,0,0,1-16.09-18.51Q1770,773.82,1770,761Zm50.54.16a73.08,73.08,0,0,0-.78-12.66,14.91,14.91,0,0,0-3.2-6.71,11.92,11.92,0,0,0-5.31-4.3,17.67,17.67,0,0,0-7.81-1.64,17.91,17.91,0,0,0-7.66,1.64,14.44,14.44,0,0,0-5.47,4.3,18.82,18.82,0,0,0-3,6.71,60.45,60.45,0,0,0-.93,12.5,58.66,58.66,0,0,0,.93,12.35,20.51,20.51,0,0,0,3,7,20,20,0,0,0,5.47,4.14,17.12,17.12,0,0,0,7.66,1.72,16.89,16.89,0,0,0,7.81-1.72,15.44,15.44,0,0,0,5.31-4.14,16.16,16.16,0,0,0,3.2-7A68.44,68.44,0,0,0,1820.55,761.16Z"/><path class="cls-1" d="M1854,720.54h16.33v8.59h.31q8.05-9.61,21.1-9.61a26.43,26.43,0,0,1,17,6.25l-11.88,14.14a17.06,17.06,0,0,0-10.7-4.06,15.31,15.31,0,0,0-10.7,4.06q-5,4-5.16,12.89v48.83H1854Z"/><path class="cls-1" d="M1916.26,687.72h16.33v70.86h.31l31.17-38h19.53l-28,31.64,31.8,49.45H1967l-21.56-37.89-12.81,14.53v23.36h-16.33Z"/><path class="cls-1" d="M2050,767.25q0,9.78,5.62,14.85,5.23,5.16,13.75,5.15,9.93,0,17.74-7.89l11.79,10.08q-12.42,13.29-29.21,13.13a42.21,42.21,0,0,1-12.5-1.88,29.94,29.94,0,0,1-5.94-2.73,28.75,28.75,0,0,1-5.71-3.67,32.18,32.18,0,0,1-8.35-12.66q-3.53-7.82-3.52-20.31,0-12,3-20a34.81,34.81,0,0,1,7.81-12.82,29.25,29.25,0,0,1,10.86-6.87,34.75,34.75,0,0,1,11.72-2.11q13.9.16,23.51,9.14,9.76,9.14,9.92,25.16v13.43Zm34.22-13.43q-.32-9.45-5.08-14.3a18,18,0,0,0-24.06,0q-4.62,4.85-5.08,14.3Z"/><path class="cls-1" d="M2160.24,794.44h-.31a13.59,13.59,0,0,1-7,6.1q-4.7,2-13,2-13.59-.17-20.94-7.19a22.47,22.47,0,0,1-7.73-17.58,23,23,0,0,1,6.72-16.95q6.72-6.87,19.68-7h22.58V745.3q.16-10.69-16.64-10.39a29.74,29.74,0,0,0-9.61,1.25,11.76,11.76,0,0,0-5.78,5l-12.81-9.76q9.3-12.2,27.42-11.88,15.32-.15,24.45,5.78,9.15,6.09,9.3,20.94v55.39h-16.33Zm0-27.19h-19.53q-14.22.32-14.06,9.77a8.66,8.66,0,0,0,3.67,7q3.51,3.21,11.64,3.2,10.23.16,14.45-2.42,3.83-2.58,3.83-11.72Z"/><path class="cls-1" d="M2225.71,787.25q7,0,11.49-2.73a8.55,8.55,0,0,0,4.45-7.66q0-4.36-2.66-6.09a13.87,13.87,0,0,0-7.26-1.95l-14.38-1.25q-10.23-.95-16.64-6.88-6.55-5.78-6.72-16.17.16-12.49,8.83-18.75,8.44-6.25,21.41-6.25a64.76,64.76,0,0,1,10.07.7,50.83,50.83,0,0,1,8.36,2.19,47.9,47.9,0,0,1,13.44,8.2L2246,742.41a50.16,50.16,0,0,0-9.92-5.55,33.42,33.42,0,0,0-11.87-2q-7.67,0-10.71,2.74a8.82,8.82,0,0,0-3.2,7,5.48,5.48,0,0,0,2.42,4.76c1.56,1.51,4.32,2.48,8.28,2.89l13.44,1q12.66.93,18.28,7.65,5.24,6.57,5.24,16.65-.17,11.79-9.61,18.2t-24,6.72q-19.85,0-35.7-14.53l11.41-11.18Q2210,787.25,2225.71,787.25Z"/><path class="cls-1" d="M2262.82,720.54h17.27l19.21,56.79h.32l19.14-56.79h17.34l-34.92,97.89q-3.36,9.14-9.3,12.65a27.39,27.39,0,0,1-13.59,3.36h-5.39V819.05h4.76a10.9,10.9,0,0,0,5.94-1.72,9.49,9.49,0,0,0,3.83-5.31l4.45-13.59Z"/></svg>